# xmcd
#
# Track frame offsets: 
#        150
#        10905
#        21365
#        32315
#        41630
#        51097
#        61537
#        70082
#        80807
#        93847
#        107557
#        116577
#        124855
#        133777
#
# Disc length: 1983 seconds
#
# Revision: 4
# Processed by: cddbd v1.5.2PL0 Copyright (c) Steve Scherf et al.
# Submitted via: ExactAudioCopy v0.95b4
#
DISCID=b007bd0e
DTITLE=Domino, Fats - Gold
DYEAR=1993
DGENRE=Blues
TTITLE0=Blueberry hill
TTITLE1=Hello Josephine
TTITLE2=Blue monday
TTITLE3=I'm walkin'
TTITLE4=I'm in love again
TTITLE5=Ain't that a shame
TTITLE6=Be my guest
TTITLE7=I'm gonna be a wheel someday
TTITLE8=Jambalaya (on the bayou)
TTITLE9=When the saints go marching in
TTITLE10=Walking to New Orleans
TTITLE11=I want to walk you home
TTITLE12=I'm ready
TTITLE13=So long
EXTD=YEAR: 1993
EXTT0=
EXTT1=
EXTT2=
EXTT3=
EXTT4=
EXTT5=
EXTT6=
EXTT7=
EXTT8=
EXTT9=
EXTT10=
EXTT11=
EXTT12=
EXTT13=
PLAYORDER=
